# xmcd
#
# Track frame offsets:
#	151
#	10520
#	19269
#	31800
#	43047
#	54718
#	63931
#	75696
#	88005
#	100244
#	112105
#	120916
#	131141
#	140803
#	152266
#	160764
#	170860
#	180731
#	191328
#	201186
#	212587
#	223122
#	231772
#	250948
#	266894
#	289639
#	302285
#
# Disc length: 4168 seconds
#
# Revision: 1
# Processed by: cddbd v1.5.2PL0 Copyright (c) Steve Scherf et al.
# Submitted via: audiograbber 1.83.01
#
DISCID=7910461b
DTITLE=Billy Adams - CD Castle Music CMRCD 581 (GB 2002)
DYEAR=1900
DGENRE=Rockabilly
TTITLE0=Rock, Pretty Mama
TTITLE1=True Love Will Come Your Way
TTITLE2=You Heard Me Knocking
TTITLE3=You Gotta Have A Duck Tail
TTITLE4=Walking Star
TTITLE5=That's My Baby
TTITLE6=Return Of The All American Boy
TTITLE7=The Fun House
TTITLE8=Blue-Eyed Ella
TTITLE9=Darling Take My Hand
TTITLE10=Tender Years
TTITLE11=Rock, Pretty Mama (alt.vers.)
TTITLE12=Tattle Tate
TTITLE13=Born To Be A Looser
TTITLE14=Sleep Baby Sleep
TTITLE15=Rip Van Winkle
TTITLE16=You Satisfy
TTITLE17=Holding Hands
TTITLE18=Are You Mad At Me
TTITLE19=Silly Feeling
TTITLE20=Keep The Flag Waving
TTITLE21=Bird Dog
TTITLE22=Honey Bee
TTITLE23=Hey Jesus
TTITLE24=Rockabilly Special
TTITLE25=You Heard Me Knocking (Live)
TTITLE26=Rock, Pretty Mama (Live)
EXTD=
EXTT0=
EXTT1=
EXTT2=
EXTT3=
EXTT4=
EXTT5=
EXTT6=
EXTT7=
EXTT8=
EXTT9=
EXTT10=
EXTT11=
EXTT12=
EXTT13=
EXTT14=
EXTT15=
EXTT16=
EXTT17=
EXTT18=
EXTT19=
EXTT20=
EXTT21=
EXTT22=
EXTT23=
EXTT24=
EXTT25=
EXTT26=
PLAYORDER=
